<svg width="40" height="272" viewBox="0 0 40 272" fill="none" xmlns="http://www.w3.org/2000/svg">
<rect x="20" y="0.707107" width="27.2843" height="27.2843" rx="4.5" transform="rotate(45 20 0.707107)" stroke="#C8A977"/>
<path d="M26.1245 12.5132H13.873C13.1209 12.5132 12.5117 13.1224 12.5117 13.8745V26.1259C12.5117 26.878 13.1209 27.4872 13.873 27.4872H26.1245C26.8766 27.4872 27.4857 26.878 27.4857 26.1259V13.8745C27.4857 13.1224 26.8766 12.5132 26.1245 12.5132ZM17.2449 24.7647H15.237V18.304H17.2449V24.7647ZM16.2205 17.3804C15.5732 17.3804 15.0498 16.8557 15.0498 16.2097C15.0498 15.5638 15.5739 15.0397 16.2205 15.0397C16.8658 15.0397 17.3905 15.5645 17.3905 16.2097C17.3905 16.8557 16.8658 17.3804 16.2205 17.3804ZM24.7659 24.7647H22.7594V21.6228C22.7594 20.8735 22.7458 19.9097 21.716 19.9097C20.6712 19.9097 20.5106 20.7258 20.5106 21.5684V24.7647H18.5041V18.304H20.4303V19.1868H20.4575C20.7257 18.6791 21.3804 18.1434 22.3571 18.1434C24.3902 18.1434 24.7659 19.4816 24.7659 21.2213V24.7647Z" fill="white"/>
<path d="M15.9338 68.8494C13.1306 68.8494 10.85 71.1299 10.85 73.9331V82.0672C10.85 84.8704 13.1306 87.151 15.9338 87.151H24.0678C26.871 87.151 29.1516 84.8704 29.1516 82.0672V73.9331C29.1516 71.1299 26.871 68.8494 24.0678 68.8494H15.9338ZM15.9338 70.8829H24.0678C25.7495 70.8829 27.1181 72.2514 27.1181 73.9331V82.0672C27.1181 83.7489 25.7495 85.1174 24.0678 85.1174H15.9338C14.252 85.1174 12.8835 83.7489 12.8835 82.0672V73.9331C12.8835 72.2514 14.252 70.8829 15.9338 70.8829ZM25.0845 71.8996C24.8149 71.8996 24.5563 72.0068 24.3656 72.1974C24.1749 72.3881 24.0678 72.6467 24.0678 72.9164C24.0678 73.186 24.1749 73.4447 24.3656 73.6353C24.5563 73.826 24.8149 73.9331 25.0845 73.9331C25.3542 73.9331 25.6128 73.826 25.8035 73.6353C25.9942 73.4447 26.1013 73.186 26.1013 72.9164C26.1013 72.6467 25.9942 72.3881 25.8035 72.1974C25.6128 72.0068 25.3542 71.8996 25.0845 71.8996ZM20.0008 72.9164C17.1976 72.9164 14.917 75.197 14.917 78.0002C14.917 80.8034 17.1976 83.0839 20.0008 83.0839C22.804 83.0839 25.0845 80.8034 25.0845 78.0002C25.0845 75.197 22.804 72.9164 20.0008 72.9164ZM20.0008 74.9499C21.6825 74.9499 23.051 76.3184 23.051 78.0002C23.051 79.6819 21.6825 81.0504 20.0008 81.0504C18.3191 81.0504 16.9505 79.6819 16.9505 78.0002C16.9505 76.3184 18.3191 74.9499 20.0008 74.9499Z" fill="white"/>
<rect x="20" y="58.7071" width="27.2843" height="27.2843" rx="4.5" transform="rotate(45 20 58.7071)" stroke="#C8A977"/>
<path d="M17.4361 144.216C24.3424 144.216 28.1199 138.494 28.1199 133.532C28.1199 133.37 28.1199 133.208 28.1089 133.047C28.8438 132.515 29.4781 131.857 29.9823 131.103C29.297 131.407 28.57 131.606 27.8256 131.694C28.6094 131.225 29.1961 130.487 29.4764 129.617C28.7393 130.055 27.9329 130.363 27.0921 130.529C26.5259 129.927 25.7772 129.528 24.9617 129.394C24.1462 129.261 23.3094 129.4 22.5808 129.79C21.8522 130.18 21.2724 130.799 20.9312 131.551C20.5899 132.304 20.5063 133.148 20.6931 133.953C19.2002 133.878 17.7398 133.49 16.4066 132.815C15.0734 132.139 13.8972 131.19 12.9545 130.03C12.4743 130.857 12.3272 131.835 12.5432 132.766C12.7592 133.698 13.322 134.512 14.117 135.042C13.5194 135.025 12.9349 134.864 12.4127 134.572C12.4127 134.588 12.4127 134.604 12.4127 134.62C12.413 135.487 12.7131 136.327 13.2621 136.998C13.8112 137.669 14.5754 138.129 15.4252 138.301C14.8724 138.452 14.2924 138.474 13.7297 138.365C13.9697 139.111 14.4368 139.764 15.0658 140.231C15.6948 140.699 16.4542 140.958 17.2378 140.973C15.9081 142.018 14.2656 142.585 12.5745 142.583C12.2758 142.583 11.9773 142.565 11.6807 142.529C13.3978 143.631 15.3958 144.216 17.4361 144.213" fill="white"/>
<rect x="20" y="116.707" width="27.2843" height="27.2843" rx="4.5" transform="rotate(45 20 116.707)" stroke="#C8A977"/>
<path d="M26.3423 188.501C25.1758 187.966 23.925 187.572 22.6171 187.346C22.5933 187.341 22.5695 187.352 22.5572 187.374C22.3963 187.66 22.2181 188.034 22.0934 188.327C20.6867 188.116 19.2872 188.116 17.9093 188.327C17.7845 188.027 17.5998 187.66 17.4383 187.374C17.426 187.353 17.4022 187.342 17.3784 187.346C16.0712 187.571 14.8204 187.965 13.6531 188.501C13.643 188.506 13.6344 188.513 13.6286 188.522C11.256 192.067 10.606 195.525 10.9249 198.939C10.9263 198.956 10.9357 198.972 10.9487 198.982C12.5141 200.132 14.0304 200.83 15.5186 201.292C15.5425 201.299 15.5677 201.291 15.5829 201.271C15.9349 200.79 16.2487 200.283 16.5178 199.75C16.5336 199.719 16.5185 199.682 16.486 199.67C15.9883 199.481 15.5143 199.251 15.0584 198.989C15.0223 198.968 15.0195 198.917 15.0526 198.892C15.1486 198.82 15.2445 198.745 15.3361 198.67C15.3527 198.656 15.3758 198.653 15.3953 198.662C18.3905 200.029 21.6331 200.029 24.5929 198.662C24.6124 198.652 24.6355 198.655 24.6528 198.669C24.7445 198.745 24.8404 198.82 24.9371 198.892C24.9702 198.917 24.9681 198.968 24.932 198.989C24.4761 199.256 24.0021 199.481 23.5037 199.669C23.4712 199.681 23.4568 199.719 23.4726 199.75C23.7475 200.283 24.0613 200.79 24.4068 201.27C24.4213 201.291 24.4472 201.299 24.471 201.292C25.9665 200.83 27.4828 200.132 29.0482 198.982C29.0619 198.972 29.0706 198.957 29.072 198.94C29.4536 194.992 28.4329 191.563 26.3661 188.523C26.3611 188.513 26.3524 188.506 26.3423 188.501ZM16.965 196.86C16.0633 196.86 15.3203 196.032 15.3203 195.015C15.3203 193.999 16.0489 193.171 16.965 193.171C17.8884 193.171 18.6242 194.006 18.6098 195.015C18.6098 196.032 17.8812 196.86 16.965 196.86ZM23.0463 196.86C22.1446 196.86 21.4016 196.032 21.4016 195.015C21.4016 193.999 22.1301 193.171 23.0463 193.171C23.9697 193.171 24.7055 194.006 24.6911 195.015C24.6911 196.032 23.9697 196.86 23.0463 196.86Z" fill="white"/>
<rect x="20" y="174.707" width="27.2843" height="27.2843" rx="4.5" transform="rotate(45 20 174.707)" stroke="#C8A977"/>
<path d="M26.1257 244.513H13.8742C13.1221 244.513 12.5129 245.122 12.5129 245.874V258.126C12.5129 258.878 13.1221 259.487 13.8742 259.487H20.6806V253.361H18.6387V251.319H20.6806V250.223C20.6806 248.147 21.692 247.235 23.4174 247.235C24.2437 247.235 24.6807 247.297 24.8876 247.325V249.277H23.7108C22.9784 249.277 22.7225 249.664 22.7225 250.447V251.319H24.8692L24.5779 253.361H22.7225V259.487H26.1257C26.8778 259.487 27.487 258.878 27.487 258.126V245.874C27.487 245.122 26.8771 244.513 26.1257 244.513Z" fill="white"/>
<rect x="20" y="232.707" width="27.2843" height="27.2843" rx="4.5" transform="rotate(45 20 232.707)" stroke="#C8A977"/>
</svg>
