<svg width="1158" height="14" viewBox="0 0 1158 14" fill="none" xmlns="http://www.w3.org/2000/svg">
<path fill-rule="evenodd" clip-rule="evenodd" d="M1.52464 7.16616L6.83388 1.85691L12.1431 7.16616L6.83388 12.4754L1.52464 7.16616ZM6.83388 14L0 7.16616L6.83388 0.332275L13.0066 6.50502H306.836V7.58311H13.2508L6.83388 14Z" fill="white" fill-opacity="0.6"/>
<path fill-rule="evenodd" clip-rule="evenodd" d="M1155.74 7.16605L1150.5 12.4112L1145.25 7.16605L1150.5 1.92088L1155.74 7.16605ZM1150.5 0.39624L1157.27 7.16605L1150.5 13.9359L1144.15 7.58325H409.254V6.50517H1144.39L1150.5 0.39624Z" fill="white" fill-opacity="0.6"/>
<path d="M367.029 7.49341L402.067 7.49344" stroke="#F1E4B8" stroke-width="1.97648"/>
<path d="M314.922 7.49341L347.714 7.49352" stroke="#F1E4B8" stroke-width="1.97648"/>
<rect x="352.128" y="7.64722" width="7.18721" height="7.18721" transform="rotate(-45 352.128 7.64722)" stroke="#F1E4B8" stroke-width="1.7968"/>
</svg>
